<svg xmlns="http://www.w3.org/2000/svg" width="64" height="64" viewBox="0 0 64 64">
  <defs>
    <linearGradient id="g" x1="12" y1="10" x2="54" y2="56" gradientUnits="userSpaceOnUse">
      <stop offset="0" stop-color="#0B1220"/>
      <stop offset="1" stop-color="#111A2E"/>
    </linearGradient>

    <style>
      .bg { fill: url(#g); }
      .dot { fill: #FFFFFF; }
      .arrow {
        stroke: #7CF3D0;
        stroke-width: 3;
        stroke-linecap: round;
        stroke-linejoin: round;
        fill: none;
      }
    </style>
  </defs>

  <!-- Background -->
  <rect x="2" y="2" width="60" height="60" rx="14" class="bg"/>

  <!-- Center dot -->
  <circle cx="32" cy="32" r="3.5" class="dot"/>

  <!-- 8 outward arrows (longer, thinner) -->

  <!-- N -->
  <path class="arrow" d="M32 10 L32 22 M32 10 L29.5 13 M32 10 L34.5 13"/>

  <!-- NE -->
  <path class="arrow" d="M49 15 L40 24 M49 15 L44.5 15 M49 15 L49 19.5"/>

  <!-- E -->
  <path class="arrow" d="M54 32 L42 32 M54 32 L51 29 M54 32 L51 35"/>

  <!-- SE -->
  <path class="arrow" d="M49 49 L40 40 M49 49 L49 44.5 M49 49 L44.5 49"/>

  <!-- S -->
  <path class="arrow" d="M32 54 L32 42 M32 54 L29.5 51 M32 54 L34.5 51"/>

  <!-- SW -->
  <path class="arrow" d="M15 49 L24 40 M15 49 L19.5 49 M15 49 L15 44.5"/>

  <!-- W -->
  <path class="arrow" d="M10 32 L22 32 M10 32 L13 29 M10 32 L13 35"/>

  <!-- NW -->
  <path class="arrow" d="M15 15 L24 24 M15 15 L15 19.5 M15 15 L19.5 15"/>
</svg>
